# xmcd
#
# Track frame offsets:
#	150
#	22107
#	37482
#	54202
#	70587
#	86677
#	104527
#	123455
#	137647
#	156147
#
# Disc length: 2285 seconds
#
# Revision: 7
# Processed by: cddbd v1.5.2PL0 Copyright (c) Steve Scherf et al.
# Submitted via: audiograbber 1.83.01
#
DISCID=8908eb0a
DTITLE=Randy Crawford - Everything Must Change
DYEAR=1976
DGENRE=Soul Oldies
TTITLE0=Everything Must Change (Live)
TTITLE1=I Let You Walk Away
TTITLE2=I'm Easy
TTITLE3=I Had To See You One More Time
TTITLE4=I've Never Been To Me
TTITLE5=Don't Let Me Down
TTITLE6=Something So Right
TTITLE7=Soon As I Touched Him
TTITLE8=Only Your Love Song Lasts
TTITLE9=Gonna Give Lovin' A Try (Live)
EXTD=MARO\n
EXTT0=
EXTT1=
EXTT2=
EXTT3=
EXTT4=
EXTT5=
EXTT6=
EXTT7=
EXTT8=
EXTT9=
PLAYORDER=
